<?xml version="1.0" encoding="utf-8"?>
<!-- Generator: Adobe Illustrator 16.0.0, SVG Export Plug-In . SVG Version: 6.00 Build 0)  -->
<!DOCTYPE svg PUBLIC "-//W3C//DTD SVG 1.1//EN" "http://www.w3.org/Graphics/SVG/1.1/DTD/svg11.dtd">
<svg version="1.1" id="Ebene_1" xmlns="http://www.w3.org/2000/svg" xmlns:xlink="http://www.w3.org/1999/xlink" x="0px" y="0px"
	 width="841.89px" height="434px" viewBox="0 0 841.89 434" enable-background="new 0 0 841.89 434" xml:space="preserve">
<rect x="340.924" y="200.204" opacity="0.85" fill="#0052FF" width="151.62" height="96.936"/>
<rect x="154.715" y="202.442" opacity="0.7" fill="#0052FF" width="138.538" height="88.577"/>
<rect x="179.429" y="90.988" opacity="0.5" fill="#0052FF" width="110.604" height="70.712"/>
<rect x="536.386" y="201.335" opacity="0.7" fill="#0052FF" width="142.034" height="90.807"/>
<rect x="720.255" y="209.702" opacity="0.3" fill="#0052FF" width="113.456" height="72.558"/>
<rect x="9.01" y="209.702" opacity="0.3" fill="#0052FF" width="113.493" height="72.558"/>
<polyline opacity="0.3" fill="#0052FF" points="461.441,0 461.441,55.285 374.93,55.285 374.93,0 "/>
<polyline opacity="0.15" fill="#0052FF" points="282.548,0.279 282.548,54.998 196.947,54.998 196.947,0.279 "/>
<rect x="50.595" y="5.621" opacity="0.1" fill="#0052FF" width="68.874" height="44.042"/>
<rect x="35.888" y="104.468" opacity="0.15" fill="#0052FF" width="72.107" height="46.107"/>
<rect x="552.081" y="90.988" opacity="0.5" fill="#0052FF" width="110.684" height="70.755"/>
<rect x="352.262" y="81.247" opacity="0.7" fill="#0052FF" width="135.119" height="86.379"/>
<g>
	<path fill="#0052FF" d="M8.987,410.883v-79.121h14.04v79.121H8.987z"/>
	<path fill="#0052FF" d="M112.18,334.678l-4.704,9.235c-4.493-2.52-11.56-3.78-21.2-3.78c-9.033,0-16.275,2.988-21.727,8.965
		c-5.453,5.978-8.178,13.683-8.178,23.115c0,9.002,2.796,16.302,8.389,21.9c5.592,5.6,12.812,8.398,21.657,8.398
		c9.64,0,17.058-2.628,22.253-7.886l7.722,8.264c-8.143,6.229-18.627,9.344-31.45,9.344c-13.432,0-24.008-3.727-31.73-11.18
		c-7.722-7.453-11.583-17.283-11.583-29.488c0-11.81,4.118-21.621,12.355-29.435c8.236-7.813,18.883-11.72,31.94-11.72
		C97.11,330.411,105.862,331.834,112.18,334.678z"/>
	<path fill="#0052FF" d="M127.624,370.646c0-11.449,3.732-21.026,11.197-28.731c7.464-7.705,17.538-11.558,30.221-11.558
		c14.273,0,25.212,3.547,32.818,10.64c7.605,7.093,11.408,16.977,11.408,29.649c0,12.999-3.815,23.179-11.442,30.542
		c-7.629,7.363-18.557,11.045-32.783,11.045c-12.964,0-23.108-3.889-30.432-11.666C131.285,392.79,127.624,382.817,127.624,370.646z
		 M142.366,370.646c0,9.074,2.328,16.653,6.985,22.737c4.656,6.086,11.22,9.128,19.691,9.128c9.593,0,16.906-2.79,21.937-8.371
		c5.03-5.581,7.546-13.412,7.546-23.494c0-20.378-9.828-30.568-29.483-30.568c-8.705,0-15.328,2.737-19.867,8.21
		C144.635,353.761,142.366,361.214,142.366,370.646z"/>
	<path fill="#0052FF" d="M295.892,411.963L242.75,354.12v56.763h-13.338v-79.121h5.616l51.737,54.71v-54.71h13.338v80.201H295.892z"
		/>
	<path fill="#0052FF" d="M365.108,383.555v-9.451h30.045v9.451H365.108z"/>
	<path fill="#0052FF" d="M531.832,337.271l-5.826,8.911c-7.067-4.032-13.994-6.049-20.779-6.049
		c-10.765,0-19.259,2.916-25.482,8.749c-6.225,5.833-9.337,13.556-9.337,23.169c0,9.146,3.054,16.509,9.161,22.09
		s14.426,8.371,24.956,8.371c7.487,0,13.549-1.729,18.182-5.185v-18.525h-14.25v-9.181h28.29v34.457
		c-3.745,2.448-8.963,4.42-15.654,5.913c-6.693,1.494-13.197,2.242-19.516,2.242c-14.181,0-25.377-3.7-33.591-11.099
		c-8.213-7.399-12.319-17.237-12.319-29.516c0-12.241,4.504-22.17,13.513-29.785s21.166-11.423,36.469-11.423
		C516.364,330.411,525.093,332.698,531.832,337.271z"/>
	<path fill="#0052FF" d="M597.608,362.924c-2.902-1.548-5.826-2.322-8.775-2.322c-4.728,0-8.856,1.674-12.39,5.022
		c-3.534,3.349-5.3,7.382-5.3,12.098v33.161h-13.338V353.04h13.338v9.235c4.866-6.876,12.097-10.315,21.691-10.315
		c2.387,0,5.826,0.324,10.319,0.973L597.608,362.924z"/>
	<path fill="#0052FF" d="M607.717,381.826c0-8.929,3.124-16.139,9.372-21.63c6.248-5.49,14.472-8.236,24.675-8.236
		c10.764,0,19.117,2.639,25.062,7.912c5.942,5.275,8.915,12.594,8.915,21.954c0,9.326-3.043,16.681-9.126,22.063
		c-6.084,5.383-14.367,8.074-24.851,8.074c-10.717,0-19.071-2.718-25.061-8.155C610.712,398.371,607.717,391.044,607.717,381.826z
		 M621.757,381.826c0,14.511,6.669,21.766,20.007,21.766c6.224,0,11.103-1.944,14.637-5.833c3.533-3.889,5.3-9.199,5.3-15.933
		c0-14.329-6.646-21.495-19.937-21.495c-6.084,0-10.939,1.909-14.566,5.726S621.757,375.13,621.757,381.826z"/>
	<path fill="#0052FF" d="M702.417,353.04v36.888c0,8.93,5.029,13.394,15.093,13.394c4.398,0,8.424-0.972,12.074-2.916
		s6.06-4.194,7.23-6.751V353.04h13.338v57.843h-13.338v-7.993c-1.499,2.269-4.505,4.348-9.021,6.238
		c-4.518,1.89-8.928,2.835-13.233,2.835c-8.237,0-14.543-1.817-18.918-5.455c-4.377-3.636-6.563-8.803-6.563-15.5V353.04H702.417z"
		/>
	<path fill="#0052FF" d="M781.671,407.696v25.87h-13.338V353.04h13.338v4.753c5.055-3.889,11.162-5.833,18.322-5.833
		c10.67,0,18.977,2.558,24.921,7.669c5.942,5.113,8.915,12.603,8.915,22.468c0,8.785-2.995,15.959-8.985,21.522
		c-5.991,5.563-14.648,8.344-25.974,8.344c-3.184,0-6.588-0.432-10.214-1.296C785.028,409.803,782.7,408.813,781.671,407.696z
		 M781.671,365.517v33.7c0.843,0.973,2.621,1.899,5.336,2.781c2.713,0.883,5.357,1.323,7.932,1.323
		c16.567,0,24.851-7.2,24.851-21.603c0-7.309-1.965-12.655-5.896-16.04c-3.931-3.385-10.226-5.077-18.884-5.077
		c-1.872,0-4.166,0.505-6.879,1.512C785.415,363.122,783.262,364.256,781.671,365.517z"/>
</g>
<g>
</g>
<g>
</g>
<g>
</g>
<g>
</g>
<g>
</g>
<g>
</g>
</svg>
